<svg xmlns="http://www.w3.org/2000/svg" width="420" height="102" viewBox="0 0 420 102">
  <defs>
    <style>
      .cls-1 {
        fill: #fff;
        fill-rule: evenodd;
      }
    </style>
  </defs>
  <path id="GHOST" class="cls-1" d="M11.08,50.081c0,25.2,19.2,41.518,42.6,41.518A44.424,44.424,0,0,0,87.757,76.48v-30.6H49.6V60.52H70.957v9.72c-3.48,3.12-9.96,6.12-17.279,6.12C39.159,76.36,28.6,65.2,28.6,50.081S39.159,23.8,53.678,23.8a22.709,22.709,0,0,1,18.959,10.08L86.8,26.2c-6.12-9.48-16.559-17.519-33.119-17.519C30.279,8.682,11.08,24.762,11.08,50.081ZM156.156,90.039h17.159V10H156.156V41.441h-37.8V10H101.318V90.039h17.039V56.44h37.8v33.6ZM185.2,50.081c0,24.119,17.639,41.4,41.758,41.4,24.239,0,41.878-17.279,41.878-41.4s-17.639-41.4-41.878-41.4C202.836,8.682,185.2,25.962,185.2,50.081Zm66.117,0c0,14.879-9.6,26.279-24.359,26.279s-24.239-11.4-24.239-26.279c0-15,9.48-26.279,24.239-26.279S251.314,35.081,251.314,50.081Zm24,28.679c7.559,7.56,18.6,12.719,33.958,12.719,21.6,0,32.039-11.04,32.039-25.679,0-17.759-16.8-21.719-30-24.719-9.239-2.16-15.959-3.84-15.959-9.24,0-4.8,4.08-8.16,11.759-8.16a34.143,34.143,0,0,1,22.919,8.76l9.48-12.48c-7.92-7.32-18.479-11.16-31.2-11.16-18.839,0-30.358,10.8-30.358,24.119,0,17.879,16.8,21.479,29.878,24.479,9.24,2.16,16.2,4.2,16.2,10.2,0,4.56-4.56,9-13.92,9a35.093,35.093,0,0,1-25.439-10.8Zm95.159,11.28h17.159V25h23.279V10H347.077V25h23.4V90.039Z"/>
</svg>
